<svg xmlns="http://www.w3.org/2000/svg">

	<symbol id="arrow-down" viewBox="0 0 62 31">
		<path fill="currentColor" d="M31,31c-0.3,0-0.5-0.1-0.7-0.3l-30-29c-0.4-0.4-0.4-1,0-1.4c0.4-0.4,1-0.4,1.4,0L31,28.6L60.3,0.3c0.4-0.4,1-0.4,1.4,0
		c0.4,0.4,0.4,1,0,1.4l-30,29C31.5,30.9,31.3,31,31,31z"/>
	</symbol>

	<symbol id="download" viewBox="0 0 43 44">
		<g fill="currentColor"><path d="M28.9,33.6l-4.2,4.2l0-21.2c0-0.9-0.6-1.7-1.5-1.9c-1.1-0.2-2.1,0.7-2.1,1.8v21.3l-4.2-4.2c-0.6-0.6-1.7-0.8-2.4-0.3 c-0.9,0.7-1,2-0.2,2.7l7.4,7.4c0,0,0,0,0,0l0,0c0.7,0.7,1.8,0.7,2.5,0l0,0c0,0,0,0,0,0l7.4-7.4c0.8-0.8,0.7-2.1-0.2-2.7 C30.6,32.8,29.6,33,28.9,33.6z"/><path d="M40.5,15.3c0.2-0.9,0.3-1.7,0.3-2.6c0-7-5.8-12.6-13-12.6c-5.3,0-10,3.1-12,7.8c-0.5-0.1-1-0.2-1.5-0.2 c-3.1,0-5.7,2-6.6,4.9c-4.9,0.9-8.6,5.7-7.5,11.1C1.1,28,5.2,31,9.6,31h7.3c1,0,1.8-0.8,1.8-1.8c0-1-0.8-1.8-1.8-1.8H9.6 c-2.9,0-5.5-2.1-5.9-4.9C3.2,19,5.8,16,9.2,15.9c0.9,0,1.7-0.7,1.8-1.7c0.1-1.7,1.6-3.1,3.3-3.1c0.6,0,1.1,0.2,1.7,0.5 c0.5,0.3,1.1,0.3,1.6,0.1c0.5-0.2,0.9-0.7,1-1.2c1-4.1,4.8-7,9.1-7c5.2,0,9.4,4.1,9.4,9.1c0,0.9-0.1,1.8-0.4,2.7 c-0.2,0.7,0,1.4,0.6,1.8c1.6,1.3,2.4,3.4,2,5.5c-0.5,2.8-3.1,4.7-5.9,4.7h-4.5c-1,0-1.8,0.8-1.8,1.8c0,1,0.8,1.8,1.8,1.8h4.4 c4.7,0,9-3.4,9.6-8.1C43.3,20.1,42.4,17.3,40.5,15.3z"/></g>
	</symbol>

	<symbol id="arrow-left" viewBox="0 0 39 44">
		<path fill="currentColor" d="M0.1,21.5C0,21.7,0,21.8,0,22c0,0,0,0,0,0c0,0,0,0,0,0c0,0.2,0,0.3,0.1,0.4c0,0.1,0.1,0.1,0.1,0.2c0,0.1,0.1,0.1,0.1,0.2 l19.7,20.8c0.5,0.5,1.2,0.5,1.7,0c0.5-0.5,0.5-1.2,0-1.7L4,23.2h33.8c0.7,0,1.2-0.5,1.2-1.2c0-0.7-0.5-1.2-1.2-1.2H4L21.8,2 c0.5-0.5,0.4-1.2,0-1.7C21.5,0.1,21.2,0,20.9,0c-0.3,0-0.6,0.1-0.9,0.4L0.3,21.2c-0.1,0.1-0.1,0.1-0.1,0.2 C0.2,21.4,0.1,21.5,0.1,21.5z"/>
	</symbol>

	<symbol id="arrow-right" viewBox="0 0 39 44">
		<path fill="currentColor" d="M38.9,22.5C39,22.3,39,22.2,39,22c0,0,0,0,0,0c0,0,0,0,0,0c0-0.2,0-0.3-0.1-0.4c0-0.1-0.1-0.1-0.1-0.2 c0-0.1-0.1-0.1-0.1-0.2L18.9,0.4c-0.5-0.5-1.2-0.5-1.7,0c-0.5,0.5-0.5,1.2,0,1.7L35,20.8H1.2C0.5,20.8,0,21.3,0,22 c0,0.7,0.5,1.2,1.2,1.2H35L17.2,42c-0.5,0.5-0.4,1.2,0,1.7c0.2,0.2,0.5,0.3,0.8,0.3c0.3,0,0.6-0.1,0.9-0.4l19.7-20.8 c0.1-0.1,0.1-0.1,0.1-0.2C38.8,22.6,38.9,22.5,38.9,22.5z"/>
	</symbol>

	<symbol id="play" viewBox="0 0 448 512">
		<path fill="currentColor" d="M424.4 214.7L72.4 6.6C43.8-10.3 0 6.1 0 47.9V464c0 37.5 40.7 60.1 72.4 41.3l352-208c31.4-18.5 31.5-64.1 0-82.6z"/>
	</symbol>

	<symbol id="pdf" viewBox="0 0 512 512">
		<g><path d="m458 145h-404c-24.813 0-45 20.187-45 45v180c0 24.813 20.187 45 45 45h404c24.813 0 45-20.187 45-45v-180c0-24.813-20.187-45-45-45zm-330.259 158.338c-3.835 0-10.387.027-16.52.058v34.597c0 8.284-6.716 15-15 15s-15-6.716-15-15l-.221-113.945c-.013-3.986 1.562-7.814 4.376-10.638s6.638-4.41 10.624-4.41h31.741c26.356 0 47.799 21.16 47.799 47.169s-21.443 47.169-47.799 47.169zm128.768 46.038c-8.934.156-31.281.241-32.228.245-.019 0-.038 0-.057 0-3.958 0-7.757-1.564-10.567-4.354-2.824-2.803-4.418-6.613-4.433-10.592-.001-.4-.224-110.646-.224-110.646-.007-3.983 1.569-7.806 4.383-10.625s6.634-4.404 10.617-4.404h31.33c35.692 0 59.672 28.256 59.672 70.311 0 40.006-24.6 69.473-58.493 70.065zm153.711-86.026c8.284 0 15 6.716 15 15s-6.716 15-15 15h-27.22v42.65c0 8.284-6.716 15-15 15s-15-6.716-15-15v-113.158c0-8.284 6.716-15 15-15h45.863c8.284 0 15 6.716 15 15s-6.716 15-15 15h-30.863v25.508z"/><path d="m255.33 239h-16.303c.023 13.54.105 67.514.147 80.543 6.242-.04 12.926-.095 16.811-.163 20.045-.35 29.018-20.377 29.018-40.069-.001-9.457-2.14-40.311-29.673-40.311z"/><path d="m127.741 239h-16.696c.018 6.675.035 13.776.035 17.169 0 3.965.028 10.842.06 17.228 6.156-.031 12.732-.059 16.602-.059 9.648 0 17.799-7.862 17.799-17.169s-8.152-17.169-17.8-17.169z"/><path d="m442.455 115c-3.477-9.53-8.877-18.338-16.027-25.88l-62.305-65.721c-14.098-14.87-33.936-23.399-54.428-23.399h-199.695c-24.813 0-45 20.187-45 45v70z"/><path d="m65 445v22c0 24.813 20.187 45 45 45h292c24.813 0 45-20.187 45-45v-22z"/></g>
	</symbol>

	<symbol id="slick-arrow-left" viewBox="0 0 492.004 492.004">
		<g fill="currentColor" transform="matrix(-1,-1.2246467991473532e-16,1.2246467991473532e-16,-1,492.00405883789057,492.00396728515636)">
			<path d="M382.678,226.804L163.73,7.86C158.666,2.792,151.906,0,144.698,0s-13.968,2.792-19.032,7.86l-16.124,16.12    c-10.492,10.504-10.492,27.576,0,38.064L293.398,245.9l-184.06,184.06c-5.064,5.068-7.86,11.824-7.86,19.028    c0,7.212,2.796,13.968,7.86,19.04l16.124,16.116c5.068,5.068,11.824,7.86,19.032,7.86s13.968-2.792,19.032-7.86L382.678,265    c5.076-5.084,7.864-11.872,7.848-19.088C390.542,238.668,387.754,231.884,382.678,226.804z"/>
		</g>
	</symbol>

	<symbol id="slick-arrow-right" viewBox="0 0 492.004 492.004">
		<g fill="currentColor">
			<path d="M382.678,226.804L163.73,7.86C158.666,2.792,151.906,0,144.698,0s-13.968,2.792-19.032,7.86l-16.124,16.12    c-10.492,10.504-10.492,27.576,0,38.064L293.398,245.9l-184.06,184.06c-5.064,5.068-7.86,11.824-7.86,19.028    c0,7.212,2.796,13.968,7.86,19.04l16.124,16.116c5.068,5.068,11.824,7.86,19.032,7.86s13.968-2.792,19.032-7.86L382.678,265    c5.076-5.084,7.864-11.872,7.848-19.088C390.542,238.668,387.754,231.884,382.678,226.804z"/>
		</g>
	</symbol>

	<symbol id="arrow-right-CTA" viewBox="0 0 448 512">
		<path d="M438.6 278.6l-160 160C272.4 444.9 264.2 448 256 448s-16.38-3.125-22.62-9.375c-12.5-12.5-12.5-32.75 0-45.25L338.8 288H32C14.33 288 .0016 273.7 .0016 256S14.33 224 32 224h306.8l-105.4-105.4c-12.5-12.5-12.5-32.75 0-45.25s32.75-12.5 45.25 0l160 160C451.1 245.9 451.1 266.1 438.6 278.6z" fill="currentColor"/>
	</symbol>

	<symbol id="whatsapp" viewBox="-23 -21 682 682.66669">
		<path d="m544.386719 93.007812c-59.875-59.945312-139.503907-92.9726558-224.335938-93.007812-174.804687 0-317.070312 142.261719-317.140625 317.113281-.023437 55.894531 14.578125 110.457031 42.332032 158.550781l-44.992188 164.335938 168.121094-44.101562c46.324218 25.269531 98.476562 38.585937 151.550781 38.601562h.132813c174.785156 0 317.066406-142.273438 317.132812-317.132812.035156-84.742188-32.921875-164.417969-92.800781-224.359376zm-224.335938 487.933594h-.109375c-47.296875-.019531-93.683594-12.730468-134.160156-36.742187l-9.621094-5.714844-99.765625 26.171875 26.628907-97.269531-6.269532-9.972657c-26.386718-41.96875-40.320312-90.476562-40.296875-140.28125.054688-145.332031 118.304688-263.570312 263.699219-263.570312 70.40625.023438 136.589844 27.476562 186.355469 77.300781s77.15625 116.050781 77.132812 186.484375c-.0625 145.34375-118.304687 263.59375-263.59375 263.59375zm144.585938-197.417968c-7.921875-3.96875-46.882813-23.132813-54.148438-25.78125-7.257812-2.644532-12.546875-3.960938-17.824219 3.96875-5.285156 7.929687-20.46875 25.78125-25.09375 31.066406-4.625 5.289062-9.242187 5.953125-17.167968 1.984375-7.925782-3.964844-33.457032-12.335938-63.726563-39.332031-23.554687-21.011719-39.457031-46.960938-44.082031-54.890626-4.617188-7.9375-.039062-11.8125 3.476562-16.171874 8.578126-10.652344 17.167969-21.820313 19.808594-27.105469 2.644532-5.289063 1.320313-9.917969-.664062-13.882813-1.976563-3.964844-17.824219-42.96875-24.425782-58.839844-6.4375-15.445312-12.964843-13.359374-17.832031-13.601562-4.617187-.230469-9.902343-.277344-15.1875-.277344-5.28125 0-13.867187 1.980469-21.132812 9.917969-7.261719 7.933594-27.730469 27.101563-27.730469 66.105469s28.394531 76.683594 32.355469 81.972656c3.960937 5.289062 55.878906 85.328125 135.367187 119.648438 18.90625 8.171874 33.664063 13.042968 45.175782 16.695312 18.984374 6.03125 36.253906 5.179688 49.910156 3.140625 15.226562-2.277344 46.878906-19.171875 53.488281-37.679687 6.601563-18.511719 6.601563-34.375 4.617187-37.683594-1.976562-3.304688-7.261718-5.285156-15.183593-9.253906zm0 0" fill="currentColor"/>
	</symbol>

	<symbol id="arrow-right-bold" viewBox="0 0 448 512">
		<path d="M438.6 278.6l-160 160C272.4 444.9 264.2 448 256 448s-16.38-3.125-22.62-9.375c-12.5-12.5-12.5-32.75 0-45.25L338.8 288H32C14.33 288 .0016 273.7 .0016 256S14.33 224 32 224h306.8l-105.4-105.4c-12.5-12.5-12.5-32.75 0-45.25s32.75-12.5 45.25 0l160 160C451.1 245.9 451.1 266.1 438.6 278.6z"/>
	</symbol>

	<symbol id="arrow-cta-flotante" viewBox="0 0 35 26">
		<g>
			<path d="M16.5256 25.3358C16.4199 25.3358 16.3137 25.3097 16.217 25.2575C16.004 25.1418 15.871 24.9166 15.871 24.6715V1.32856C15.871 1.08351 16.004 0.85774 16.217 0.742587C16.3137 0.6904 16.4194 0.664307 16.5256 0.664307C16.6531 0.664307 16.78 0.701745 16.8895 0.776623L34.0552 12.4478C34.2369 12.5715 34.3459 12.778 34.3459 12.9998C34.3459 13.2216 34.2375 13.428 34.0552 13.5517L16.8895 25.2235C16.78 25.2984 16.6525 25.3358 16.5256 25.3358Z" fill="#F6DF35"/>
			<path d="M16.5256 1.3285L33.6913 12.9997L16.5256 24.6715V1.3285ZM16.5256 0C16.3143 0 16.1024 0.0516199 15.909 0.156562C15.4825 0.387433 15.2164 0.837831 15.2164 1.3285V24.6715C15.2164 25.1616 15.483 25.6126 15.909 25.8434C16.1024 25.9478 16.3143 25.9994 16.5256 25.9994C16.7805 25.9994 17.0349 25.924 17.2546 25.7748L34.4197 14.103C34.782 13.8563 35 13.4427 35 12.9997C35 12.5567 34.782 12.1426 34.4197 11.8964L17.254 0.224632C17.0349 0.0754445 16.7805 0 16.5256 0Z" fill="black"/>
			<path d="M1.30923 25.3358C1.20357 25.3358 1.09792 25.3097 1.0012 25.2575C0.788211 25.1418 0.654602 24.9166 0.654602 24.6715V1.32856C0.654602 1.08351 0.787652 0.85774 1.0012 0.742587C1.09792 0.6904 1.20357 0.664307 1.30923 0.664307C1.43669 0.664307 1.56415 0.701745 1.67372 0.776623L18.8389 12.4478C19.0205 12.5715 19.1296 12.778 19.1296 12.9998C19.1296 13.2216 19.0211 13.428 18.8389 13.5517L1.67372 25.2235C1.56359 25.2984 1.43669 25.3358 1.30923 25.3358Z" fill="#F6DF35"/>
			<path d="M1.30926 1.3285L18.4744 12.9997L1.30926 24.6715V1.3285ZM1.30926 0C1.09794 0 0.886069 0.0516199 0.692643 0.156562C0.266659 0.387433 0 0.837831 0 1.3285V24.6715C0 25.1616 0.266659 25.6126 0.692643 25.8434C0.886069 25.9478 1.09794 25.9994 1.30926 25.9994C1.56418 25.9994 1.81854 25.924 2.03824 25.7748L19.2034 14.103C19.5656 13.8563 19.7837 13.4427 19.7837 12.9997C19.7837 12.5567 19.5656 12.1426 19.2034 11.8964L2.03824 0.224632C1.81798 0.0754445 1.56418 0 1.30926 0Z" fill="black"/>
		</g>
	</symbol>
</svg>